<?xml version="1.0" encoding="UTF-8" standalone="no"?>
<!-- Generator: Adobe Illustrator 16.0.0, SVG Export Plug-In . SVG Version: 6.00 Build 0)  -->

<svg
   xmlns:dc="http://purl.org/dc/elements/1.1/"
   xmlns:cc="http://creativecommons.org/ns#"
   xmlns:rdf="http://www.w3.org/1999/02/22-rdf-syntax-ns#"
   xmlns:svg="http://www.w3.org/2000/svg"
   xmlns="http://www.w3.org/2000/svg"
   xmlns:sodipodi="http://sodipodi.sourceforge.net/DTD/sodipodi-0.dtd"
   xmlns:inkscape="http://www.inkscape.org/namespaces/inkscape"
   version="1.1"
   id="Capa_1"
   x="0px"
   y="0px"
   width="638.062px"
   height="638.062px"
   viewBox="0 0 638.062 638.062"
   style="enable-background:new 0 0 638.062 638.062;"
   xml:space="preserve"
   sodipodi:docname="double-right-arrows-angles.svg"
   inkscape:version="0.92.4 (5da689c313, 2019-01-14)"><metadata
   id="metadata44"><rdf:RDF><cc:Work
       rdf:about=""><dc:format>image/svg+xml</dc:format><dc:type
         rdf:resource="http://purl.org/dc/dcmitype/StillImage" /></cc:Work></rdf:RDF></metadata><defs
   id="defs42" /><sodipodi:namedview
   pagecolor="#ffffff"
   bordercolor="#666666"
   borderopacity="1"
   objecttolerance="10"
   gridtolerance="10"
   guidetolerance="10"
   inkscape:pageopacity="0"
   inkscape:pageshadow="2"
   inkscape:window-width="1366"
   inkscape:window-height="721"
   id="namedview40"
   showgrid="false"
   inkscape:zoom="0.36987001"
   inkscape:cx="319.03101"
   inkscape:cy="319.03101"
   inkscape:window-x="-4"
   inkscape:window-y="-4"
   inkscape:window-maximized="1"
   inkscape:current-layer="Capa_1" />
<g
   id="g7"
   style="fill:#ffffff;fill-opacity:1">
	<g
   id="_x35__40_"
   style="fill:#ffffff;fill-opacity:1">
		<g
   id="g4"
   style="fill:#ffffff;fill-opacity:1">
			<path
   d="M303.4,319.03c0.585-7.521-1.701-15.203-7.469-20.944L58.786,61.339c-10.472-10.445-27.43-10.445-37.902,0     c-10.473,10.446-10.473,27.378,0,37.85L241.098,319.03L20.884,538.872c-10.473,10.445-10.473,27.377,0,37.823     c10.473,10.445,27.431,10.445,37.902,0l237.146-236.747C301.699,334.207,303.959,326.553,303.4,319.03z M617.521,298.086     L326.765,7.834c-10.473-10.445-27.431-10.445-37.903,0c-10.473,10.446-10.473,27.404,0,37.823L562.687,319.03L288.861,592.377     c-10.473,10.446-10.473,27.377,0,37.85c10.473,10.446,27.431,10.446,37.903,0l290.729-290.251     c5.768-5.741,8.027-13.423,7.442-20.945C625.548,311.509,623.262,303.827,617.521,298.086z"
   id="path2"
   style="fill:#ffffff;fill-opacity:1" />
		</g>
	</g>
</g>
<g
   id="g9">
</g>
<g
   id="g11">
</g>
<g
   id="g13">
</g>
<g
   id="g15">
</g>
<g
   id="g17">
</g>
<g
   id="g19">
</g>
<g
   id="g21">
</g>
<g
   id="g23">
</g>
<g
   id="g25">
</g>
<g
   id="g27">
</g>
<g
   id="g29">
</g>
<g
   id="g31">
</g>
<g
   id="g33">
</g>
<g
   id="g35">
</g>
<g
   id="g37">
</g>
</svg>